<?xml version="1.0" encoding="utf-8"?>
<!-- Generator: Adobe Illustrator 26.0.0, SVG Export Plug-In . SVG Version: 6.00 Build 0)  -->
<svg version="1.1" xmlns="http://www.w3.org/2000/svg" x="0px" y="0px"
     viewBox="0 0 128 128" style="enable-background:new 0 0 128 128;" xml:space="preserve">
<style type="text/css">
	.st0{fill:#3C00FF;stroke:#1E00FF;stroke-width:0.25;stroke-miterlimit:10;}
	.st1{fill:#003CFF;stroke:#001EFF;stroke-width:0.25;stroke-miterlimit:10;}
	.st2{fill:#3C3CFF;stroke:#5A5AFF;stroke-width:0.25;stroke-miterlimit:10;}
	.st3{fill:#1E3CFF;stroke:#3C5AFF;stroke-width:0.25;stroke-miterlimit:10;}
	.st4{display:none;}
	.st5{display:inline;}
	.st6{fill:#5A5AFF;stroke:#7878FF;stroke-width:0.25;stroke-miterlimit:10;}
	.st7{fill:#3C5AFF;stroke:#5A78FF;stroke-width:0.25;stroke-miterlimit:10;}
</style>
    <g id="_x30_">
	<g>
		<g>
			<g>
				<g>
					<path class="st0" d="M117.5,54.5c-3.79-4.11-7.49-6.58-10-8c-4.19-2.37-6.84-2.84-8-3c-2.06-0.28-3.8-0.16-5,0
						c0.28-1.89,0.49-4.69,0-8c-0.45-3.06-1.31-5.26-2-7c-0.91-2.3-2.44-5.51-5-9c0-1.33,0-2.67,0-4c0-2.67,0-5.33,0-8
						c0.51,1.26,2.36,5.36,7,8c4.4,2.5,8.62,2.17,10,2c0.66,3.85,1.31,7.7,1.97,11.55c0.34,1.11,0.94,2.72,2.03,4.45
						c1.96,3.11,3.44,3.37,5,6c0.79,1.33,0.8,1.91,2,7C115.93,48.33,116.6,51.09,117.5,54.5z"/>
				</g>
                <g>
					<path class="st1" d="M92.5,123.5c-0.9-7.77,0.06-14,1-18c1.47-6.26,3.81-15.69,12-21c2.95-1.91,5.92-2.67,8-3
						c-1.28-0.62-3.06-1.58-5-3c-4.26-3.12-6.62-6.52-9-10c-1.79-2.62-4.01-6.29-6-11c-0.27,1.58-0.97,4.32-3,7
						c-1.01,1.33-2.09,2.31-3,3c0.07,5.95-0.48,10.72-1,14c-0.95,5.97-1.87,7.49-2,12c-0.13,4.54,0.68,7.81,2,13
						C87.61,110.86,89.42,116.75,92.5,123.5z"/>
				</g>
			</g>
		</g>
        <g>
			<g>
				<g>
					<path class="st0" d="M10.5,54.5c3.79-4.11,7.49-6.58,10-8c4.19-2.37,6.84-2.84,8-3c2.06-0.28,3.8-0.16,5,0
						c-0.28-1.89-0.49-4.69,0-8c0.45-3.06,1.31-5.26,2-7c0.91-2.3,2.44-5.51,5-9c0-1.33,0-2.67,0-4c0-2.67,0-5.33,0-8
						c-0.51,1.26-2.36,5.36-7,8c-4.4,2.5-8.62,2.17-10,2c-0.66,3.85-1.31,7.7-1.97,11.55c-0.34,1.11-0.94,2.72-2.03,4.45
						c-1.96,3.11-3.44,3.37-5,6c-0.79,1.33-0.8,1.91-2,7C12.07,48.33,11.4,51.09,10.5,54.5z"/>
				</g>
                <g>
					<path class="st1" d="M35.5,123.5c0.9-7.77-0.06-14-1-18c-1.47-6.26-3.81-15.69-12-21c-2.95-1.91-5.92-2.67-8-3
						c1.28-0.62,3.06-1.58,5-3c4.26-3.12,6.62-6.52,9-10c1.79-2.62,4.01-6.29,6-11c0.27,1.58,0.97,4.32,3,7c1.01,1.33,2.09,2.31,3,3
						c-0.07,5.95,0.48,10.72,1,14c0.95,5.97,1.87,7.49,2,12c0.13,4.54-0.68,7.81-2,13C40.39,110.86,38.58,116.75,35.5,123.5z"/>
				</g>
			</g>
		</g>
	</g>
</g>
    <g id="_x31_">
	<g>
		<path class="st2" d="M84.02,60.5c-2.78-3.02-5.5-4.83-7.34-5.87c-3.07-1.74-5.02-2.09-5.87-2.2c-1.51-0.2-2.79-0.12-3.67,0
			c0.2-1.39,0.36-3.44,0-5.87c-0.33-2.24-0.96-3.86-1.47-5.14C65,39.73,63.88,37.37,62,34.81c0-0.98,0-1.96,0-2.94
			c0-1.96,0-3.91,0-5.87c0.37,0.92,1.73,3.93,5.14,5.87c3.23,1.84,6.32,1.59,7.34,1.47c0.48,2.83,0.96,5.65,1.44,8.48
			c0.25,0.82,0.69,2,1.49,3.27c1.44,2.29,2.53,2.47,3.67,4.4c0.58,0.97,0.58,1.4,1.47,5.14C82.87,55.97,83.36,58,84.02,60.5z"/>
	</g>
        <g>
		<path class="st3" d="M59.26,89.5c0.75-6.48-0.05-11.67-0.83-15c-1.23-5.21-3.17-13.08-10-17.5c-2.46-1.59-4.93-2.22-6.67-2.5
			c1.07-0.51,2.55-1.31,4.17-2.5c3.55-2.6,5.52-5.43,7.5-8.33c1.49-2.18,3.34-5.24,5-9.17c0.22,1.32,0.81,3.6,2.5,5.83
			c0.84,1.11,1.74,1.92,2.5,2.5c-0.06,4.96,0.4,8.93,0.83,11.67c0.79,4.97,1.56,6.24,1.67,10c0.11,3.79-0.57,6.51-1.67,10.83
			C63.34,78.97,61.83,83.87,59.26,89.5z"/>
	</g>
</g>
    <g id="_x32_" class="st4">
	<g class="st5">
		<path class="st6" d="M69.62,65.42c0.68-0.74,1.34-1.18,1.79-1.43c0.75-0.43,1.22-0.51,1.43-0.54c0.37-0.05,0.68-0.03,0.9,0
			c-0.05-0.34-0.09-0.84,0-1.43c0.08-0.55,0.23-0.94,0.36-1.25c0.16-0.41,0.44-0.99,0.9-1.61c0-0.24,0-0.48,0-0.72
			c0-0.48,0-0.96,0-1.43c-0.09,0.23-0.42,0.96-1.25,1.43c-0.79,0.45-1.54,0.39-1.79,0.36c-0.12,0.69-0.23,1.38-0.35,2.07
			c-0.06,0.2-0.17,0.49-0.36,0.8c-0.35,0.56-0.62,0.6-0.9,1.08c-0.14,0.24-0.14,0.34-0.36,1.25C69.91,64.32,69.79,64.81,69.62,65.42
			z"/>
	</g>
        <g class="st5">
		<path class="st7" d="M75.67,72.5c-0.18-1.58,0.01-2.85,0.2-3.66c0.3-1.27,0.77-3.19,2.44-4.27c0.6-0.39,1.2-0.54,1.63-0.61
			c-0.26-0.13-0.62-0.32-1.02-0.61c-0.87-0.64-1.35-1.33-1.83-2.03c-0.36-0.53-0.81-1.28-1.22-2.24c-0.05,0.32-0.2,0.88-0.61,1.42
			c-0.21,0.27-0.43,0.47-0.61,0.61c0.01,1.21-0.1,2.18-0.2,2.85c-0.19,1.21-0.38,1.52-0.41,2.44c-0.03,0.92,0.14,1.59,0.41,2.64
			C74.67,69.93,75.04,71.13,75.67,72.5z"/>
	</g>
</g>
</svg>
